<mxfile host="app.diagrams.net" modified="2023-05-18T12:52:26.531Z" agent="Mozilla/5.0 (X11; Linux x86_64; rv:102.0) Gecko/20100101 Firefox/102.0" etag="adolARncWZatWd8o938I" version="21.3.2" type="device">
  <diagram name="PÃ¡gina-1" id="5oJ5WBHKLA_U3Vbbzctd">
    <mxGraphModel dx="1430" dy="795" grid="1" gridSize="10" guides="1" tooltips="1" connect="1" arrows="1" fold="1" page="1" pageScale="1" pageWidth="1169" pageHeight="827" math="1" shadow="0">
      <root>
        <mxCell id="0" />
        <mxCell id="1" parent="0" />
        <mxCell id="XBwlvYfsJkR7OyTx2r9g-1" value="" style="shape=table;startSize=0;container=1;collapsible=0;childLayout=tableLayout;fontSize=16;" parent="1" vertex="1">
          <mxGeometry x="200" y="440" width="160" height="160" as="geometry" />
        </mxCell>
        <mxCell id="XBwlvYfsJkR7OyTx2r9g-6" value="" style="shape=tableRow;horizontal=0;startSize=0;swimlaneHead=0;swimlaneBody=0;strokeColor=inherit;top=0;left=0;bottom=0;right=0;collapsible=0;dropTarget=0;fillColor=none;points=[[0,0.5],[1,0.5]];portConstraint=eastwest;fontSize=16;" parent="XBwlvYfsJkR7OyTx2r9g-1" vertex="1">
          <mxGeometry width="160" height="40" as="geometry" />
        </mxCell>
        <mxCell id="XBwlvYfsJkR7OyTx2r9g-8" value="0.0" style="shape=partialRectangle;html=1;whiteSpace=wrap;connectable=0;strokeColor=#004489;overflow=hidden;fillColor=#50A1F2;top=0;left=0;bottom=0;right=0;pointerEvents=1;fontSize=16;" parent="XBwlvYfsJkR7OyTx2r9g-6" vertex="1">
          <mxGeometry width="40" height="40" as="geometry">
            <mxRectangle width="40" height="40" as="alternateBounds" />
          </mxGeometry>
        </mxCell>
        <mxCell id="XBwlvYfsJkR7OyTx2r9g-28" value="2.0" style="shape=partialRectangle;html=1;whiteSpace=wrap;connectable=0;strokeColor=#f18e00;overflow=hidden;fillColor=#F1B880;top=0;left=0;bottom=0;right=0;pointerEvents=1;fontSize=16;" parent="XBwlvYfsJkR7OyTx2r9g-6" vertex="1">
          <mxGeometry x="40" width="40" height="40" as="geometry">
            <mxRectangle width="40" height="40" as="alternateBounds" />
          </mxGeometry>
        </mxCell>
        <mxCell id="XBwlvYfsJkR7OyTx2r9g-23" value="" style="shape=partialRectangle;html=1;whiteSpace=wrap;connectable=0;strokeColor=#004489;overflow=hidden;fillColor=#50A1F2;top=0;left=0;bottom=0;right=0;pointerEvents=1;fontSize=16;" parent="XBwlvYfsJkR7OyTx2r9g-6" vertex="1">
          <mxGeometry x="80" width="40" height="40" as="geometry">
            <mxRectangle width="40" height="40" as="alternateBounds" />
          </mxGeometry>
        </mxCell>
        <mxCell id="XBwlvYfsJkR7OyTx2r9g-9" value="5.2" style="shape=partialRectangle;html=1;whiteSpace=wrap;connectable=0;strokeColor=#004489;overflow=hidden;fillColor=#50A1F2;top=0;left=0;bottom=0;right=0;pointerEvents=1;fontSize=16;" parent="XBwlvYfsJkR7OyTx2r9g-6" vertex="1">
          <mxGeometry x="120" width="40" height="40" as="geometry">
            <mxRectangle width="40" height="40" as="alternateBounds" />
          </mxGeometry>
        </mxCell>
        <mxCell id="XBwlvYfsJkR7OyTx2r9g-10" value="" style="shape=tableRow;horizontal=0;startSize=0;swimlaneHead=0;swimlaneBody=0;strokeColor=inherit;top=0;left=0;bottom=0;right=0;collapsible=0;dropTarget=0;fillColor=none;points=[[0,0.5],[1,0.5]];portConstraint=eastwest;fontSize=16;" parent="XBwlvYfsJkR7OyTx2r9g-1" vertex="1">
          <mxGeometry y="40" width="160" height="40" as="geometry" />
        </mxCell>
        <mxCell id="XBwlvYfsJkR7OyTx2r9g-12" value="2.0" style="shape=partialRectangle;html=1;whiteSpace=wrap;connectable=0;strokeColor=inherit;overflow=hidden;fillColor=none;top=0;left=0;bottom=0;right=0;pointerEvents=1;fontSize=16;" parent="XBwlvYfsJkR7OyTx2r9g-10" vertex="1">
          <mxGeometry width="40" height="40" as="geometry">
            <mxRectangle width="40" height="40" as="alternateBounds" />
          </mxGeometry>
        </mxCell>
        <mxCell id="XBwlvYfsJkR7OyTx2r9g-29" value="0.0" style="shape=partialRectangle;html=1;whiteSpace=wrap;connectable=0;strokeColor=#004489;overflow=hidden;fillColor=#50A1F2;top=0;left=0;bottom=0;right=0;pointerEvents=1;fontSize=16;" parent="XBwlvYfsJkR7OyTx2r9g-10" vertex="1">
          <mxGeometry x="40" width="40" height="40" as="geometry">
            <mxRectangle width="40" height="40" as="alternateBounds" />
          </mxGeometry>
        </mxCell>
        <mxCell id="XBwlvYfsJkR7OyTx2r9g-24" value="" style="shape=partialRectangle;html=1;whiteSpace=wrap;connectable=0;strokeColor=inherit;overflow=hidden;fillColor=none;top=0;left=0;bottom=0;right=0;pointerEvents=1;fontSize=16;" parent="XBwlvYfsJkR7OyTx2r9g-10" vertex="1">
          <mxGeometry x="80" width="40" height="40" as="geometry">
            <mxRectangle width="40" height="40" as="alternateBounds" />
          </mxGeometry>
        </mxCell>
        <mxCell id="XBwlvYfsJkR7OyTx2r9g-13" value="4.1" style="shape=partialRectangle;html=1;whiteSpace=wrap;connectable=0;strokeColor=inherit;overflow=hidden;fillColor=none;top=0;left=0;bottom=0;right=0;pointerEvents=1;fontSize=16;" parent="XBwlvYfsJkR7OyTx2r9g-10" vertex="1">
          <mxGeometry x="120" width="40" height="40" as="geometry">
            <mxRectangle width="40" height="40" as="alternateBounds" />
          </mxGeometry>
        </mxCell>
        <mxCell id="XBwlvYfsJkR7OyTx2r9g-18" style="shape=tableRow;horizontal=0;startSize=0;swimlaneHead=0;swimlaneBody=0;strokeColor=inherit;top=0;left=0;bottom=0;right=0;collapsible=0;dropTarget=0;fillColor=none;points=[[0,0.5],[1,0.5]];portConstraint=eastwest;fontSize=16;" parent="XBwlvYfsJkR7OyTx2r9g-1" vertex="1">
          <mxGeometry y="80" width="160" height="40" as="geometry" />
        </mxCell>
        <mxCell id="XBwlvYfsJkR7OyTx2r9g-20" style="shape=partialRectangle;html=1;whiteSpace=wrap;connectable=0;strokeColor=inherit;overflow=hidden;fillColor=none;top=0;left=0;bottom=0;right=0;pointerEvents=1;fontSize=16;" parent="XBwlvYfsJkR7OyTx2r9g-18" vertex="1">
          <mxGeometry width="40" height="40" as="geometry">
            <mxRectangle width="40" height="40" as="alternateBounds" />
          </mxGeometry>
        </mxCell>
        <mxCell id="XBwlvYfsJkR7OyTx2r9g-30" style="shape=partialRectangle;html=1;whiteSpace=wrap;connectable=0;strokeColor=#004489;overflow=hidden;fillColor=#50A1F2;top=0;left=0;bottom=0;right=0;pointerEvents=1;fontSize=16;" parent="XBwlvYfsJkR7OyTx2r9g-18" vertex="1">
          <mxGeometry x="40" width="40" height="40" as="geometry">
            <mxRectangle width="40" height="40" as="alternateBounds" />
          </mxGeometry>
        </mxCell>
        <mxCell id="XBwlvYfsJkR7OyTx2r9g-25" value="" style="shape=partialRectangle;html=1;whiteSpace=wrap;connectable=0;strokeColor=inherit;overflow=hidden;fillColor=none;top=0;left=0;bottom=0;right=0;pointerEvents=1;fontSize=16;" parent="XBwlvYfsJkR7OyTx2r9g-18" vertex="1">
          <mxGeometry x="80" width="40" height="40" as="geometry">
            <mxRectangle width="40" height="40" as="alternateBounds" />
          </mxGeometry>
        </mxCell>
        <mxCell id="XBwlvYfsJkR7OyTx2r9g-21" style="shape=partialRectangle;html=1;whiteSpace=wrap;connectable=0;strokeColor=inherit;overflow=hidden;fillColor=none;top=0;left=0;bottom=0;right=0;pointerEvents=1;fontSize=16;" parent="XBwlvYfsJkR7OyTx2r9g-18" vertex="1">
          <mxGeometry x="120" width="40" height="40" as="geometry">
            <mxRectangle width="40" height="40" as="alternateBounds" />
          </mxGeometry>
        </mxCell>
        <mxCell id="XBwlvYfsJkR7OyTx2r9g-14" style="shape=tableRow;horizontal=0;startSize=0;swimlaneHead=0;swimlaneBody=0;strokeColor=inherit;top=0;left=0;bottom=0;right=0;collapsible=0;dropTarget=0;fillColor=none;points=[[0,0.5],[1,0.5]];portConstraint=eastwest;fontSize=16;" parent="XBwlvYfsJkR7OyTx2r9g-1" vertex="1">
          <mxGeometry y="120" width="160" height="40" as="geometry" />
        </mxCell>
        <mxCell id="XBwlvYfsJkR7OyTx2r9g-16" value="5.2" style="shape=partialRectangle;html=1;whiteSpace=wrap;connectable=0;strokeColor=inherit;overflow=hidden;fillColor=none;top=0;left=0;bottom=0;right=0;pointerEvents=1;fontSize=16;" parent="XBwlvYfsJkR7OyTx2r9g-14" vertex="1">
          <mxGeometry width="40" height="40" as="geometry">
            <mxRectangle width="40" height="40" as="alternateBounds" />
          </mxGeometry>
        </mxCell>
        <mxCell id="XBwlvYfsJkR7OyTx2r9g-31" value="4.1" style="shape=partialRectangle;html=1;whiteSpace=wrap;connectable=0;strokeColor=#004489;overflow=hidden;fillColor=#50A1F2;top=0;left=0;bottom=0;right=0;pointerEvents=1;fontSize=16;" parent="XBwlvYfsJkR7OyTx2r9g-14" vertex="1">
          <mxGeometry x="40" width="40" height="40" as="geometry">
            <mxRectangle width="40" height="40" as="alternateBounds" />
          </mxGeometry>
        </mxCell>
        <mxCell id="XBwlvYfsJkR7OyTx2r9g-26" style="shape=partialRectangle;html=1;whiteSpace=wrap;connectable=0;strokeColor=inherit;overflow=hidden;fillColor=none;top=0;left=0;bottom=0;right=0;pointerEvents=1;fontSize=16;" parent="XBwlvYfsJkR7OyTx2r9g-14" vertex="1">
          <mxGeometry x="80" width="40" height="40" as="geometry">
            <mxRectangle width="40" height="40" as="alternateBounds" />
          </mxGeometry>
        </mxCell>
        <mxCell id="XBwlvYfsJkR7OyTx2r9g-17" value="0.0" style="shape=partialRectangle;html=1;whiteSpace=wrap;connectable=0;strokeColor=inherit;overflow=hidden;fillColor=none;top=0;left=0;bottom=0;right=0;pointerEvents=1;fontSize=16;" parent="XBwlvYfsJkR7OyTx2r9g-14" vertex="1">
          <mxGeometry x="120" width="40" height="40" as="geometry">
            <mxRectangle width="40" height="40" as="alternateBounds" />
          </mxGeometry>
        </mxCell>
        <mxCell id="XBwlvYfsJkR7OyTx2r9g-32" value="" style="shape=table;startSize=0;container=1;collapsible=0;childLayout=tableLayout;fontSize=16;" parent="1" vertex="1">
          <mxGeometry x="560" y="440" width="160" height="160" as="geometry" />
        </mxCell>
        <mxCell id="XBwlvYfsJkR7OyTx2r9g-39" value="" style="shape=tableRow;horizontal=0;startSize=0;swimlaneHead=0;swimlaneBody=0;strokeColor=inherit;top=0;left=0;bottom=0;right=0;collapsible=0;dropTarget=0;fillColor=none;points=[[0,0.5],[1,0.5]];portConstraint=eastwest;fontSize=16;" parent="XBwlvYfsJkR7OyTx2r9g-32" vertex="1">
          <mxGeometry width="160" height="40" as="geometry" />
        </mxCell>
        <mxCell id="XBwlvYfsJkR7OyTx2r9g-41" value="0.0" style="shape=partialRectangle;html=1;whiteSpace=wrap;connectable=0;strokeColor=#004489;overflow=hidden;fillColor=#50A1F2;top=0;left=0;bottom=0;right=0;pointerEvents=1;fontSize=16;" parent="XBwlvYfsJkR7OyTx2r9g-39" vertex="1">
          <mxGeometry width="40" height="40" as="geometry">
            <mxRectangle width="40" height="40" as="alternateBounds" />
          </mxGeometry>
        </mxCell>
        <mxCell id="XBwlvYfsJkR7OyTx2r9g-42" value="4,3" style="shape=partialRectangle;html=1;whiteSpace=wrap;connectable=0;strokeColor=inherit;overflow=hidden;fillColor=none;top=0;left=0;bottom=0;right=0;pointerEvents=1;fontSize=16;" parent="XBwlvYfsJkR7OyTx2r9g-39" vertex="1">
          <mxGeometry x="40" width="40" height="40" as="geometry">
            <mxRectangle width="40" height="40" as="alternateBounds" />
          </mxGeometry>
        </mxCell>
        <mxCell id="XBwlvYfsJkR7OyTx2r9g-43" value="" style="shape=partialRectangle;html=1;whiteSpace=wrap;connectable=0;strokeColor=inherit;overflow=hidden;fillColor=none;top=0;left=0;bottom=0;right=0;pointerEvents=1;fontSize=16;" parent="XBwlvYfsJkR7OyTx2r9g-39" vertex="1">
          <mxGeometry x="80" width="40" height="40" as="geometry">
            <mxRectangle width="40" height="40" as="alternateBounds" />
          </mxGeometry>
        </mxCell>
        <mxCell id="XBwlvYfsJkR7OyTx2r9g-44" value="1.2" style="shape=partialRectangle;html=1;whiteSpace=wrap;connectable=0;strokeColor=inherit;overflow=hidden;fillColor=none;top=0;left=0;bottom=0;right=0;pointerEvents=1;fontSize=16;" parent="XBwlvYfsJkR7OyTx2r9g-39" vertex="1">
          <mxGeometry x="120" width="40" height="40" as="geometry">
            <mxRectangle width="40" height="40" as="alternateBounds" />
          </mxGeometry>
        </mxCell>
        <mxCell id="XBwlvYfsJkR7OyTx2r9g-45" value="" style="shape=tableRow;horizontal=0;startSize=0;swimlaneHead=0;swimlaneBody=0;strokeColor=inherit;top=0;left=0;bottom=0;right=0;collapsible=0;dropTarget=0;fillColor=none;points=[[0,0.5],[1,0.5]];portConstraint=eastwest;fontSize=16;" parent="XBwlvYfsJkR7OyTx2r9g-32" vertex="1">
          <mxGeometry y="40" width="160" height="40" as="geometry" />
        </mxCell>
        <mxCell id="XBwlvYfsJkR7OyTx2r9g-47" value="4.3" style="shape=partialRectangle;html=1;whiteSpace=wrap;connectable=0;strokeColor=#f18e00;overflow=hidden;fillColor=#F1B880;top=0;left=0;bottom=0;right=0;pointerEvents=1;fontSize=16;" parent="XBwlvYfsJkR7OyTx2r9g-45" vertex="1">
          <mxGeometry width="40" height="40" as="geometry">
            <mxRectangle width="40" height="40" as="alternateBounds" />
          </mxGeometry>
        </mxCell>
        <mxCell id="XBwlvYfsJkR7OyTx2r9g-48" value="0.0" style="shape=partialRectangle;html=1;whiteSpace=wrap;connectable=0;strokeColor=#004489;overflow=hidden;fillColor=#50A1F2;top=0;left=0;bottom=0;right=0;pointerEvents=1;fontSize=16;" parent="XBwlvYfsJkR7OyTx2r9g-45" vertex="1">
          <mxGeometry x="40" width="40" height="40" as="geometry">
            <mxRectangle width="40" height="40" as="alternateBounds" />
          </mxGeometry>
        </mxCell>
        <mxCell id="XBwlvYfsJkR7OyTx2r9g-49" value="" style="shape=partialRectangle;html=1;whiteSpace=wrap;connectable=0;strokeColor=#004489;overflow=hidden;fillColor=#50A1F2;top=0;left=0;bottom=0;right=0;pointerEvents=1;fontSize=16;" parent="XBwlvYfsJkR7OyTx2r9g-45" vertex="1">
          <mxGeometry x="80" width="40" height="40" as="geometry">
            <mxRectangle width="40" height="40" as="alternateBounds" />
          </mxGeometry>
        </mxCell>
        <mxCell id="XBwlvYfsJkR7OyTx2r9g-50" value="8.3" style="shape=partialRectangle;html=1;whiteSpace=wrap;connectable=0;strokeColor=#004489;overflow=hidden;fillColor=#50A1F2;top=0;left=0;bottom=0;right=0;pointerEvents=1;fontSize=16;" parent="XBwlvYfsJkR7OyTx2r9g-45" vertex="1">
          <mxGeometry x="120" width="40" height="40" as="geometry">
            <mxRectangle width="40" height="40" as="alternateBounds" />
          </mxGeometry>
        </mxCell>
        <mxCell id="XBwlvYfsJkR7OyTx2r9g-51" style="shape=tableRow;horizontal=0;startSize=0;swimlaneHead=0;swimlaneBody=0;strokeColor=inherit;top=0;left=0;bottom=0;right=0;collapsible=0;dropTarget=0;fillColor=none;points=[[0,0.5],[1,0.5]];portConstraint=eastwest;fontSize=16;" parent="XBwlvYfsJkR7OyTx2r9g-32" vertex="1">
          <mxGeometry y="80" width="160" height="40" as="geometry" />
        </mxCell>
        <mxCell id="XBwlvYfsJkR7OyTx2r9g-53" style="shape=partialRectangle;html=1;whiteSpace=wrap;connectable=0;strokeColor=#004489;overflow=hidden;fillColor=#50A1F2;top=0;left=0;bottom=0;right=0;pointerEvents=1;fontSize=16;" parent="XBwlvYfsJkR7OyTx2r9g-51" vertex="1">
          <mxGeometry width="40" height="40" as="geometry">
            <mxRectangle width="40" height="40" as="alternateBounds" />
          </mxGeometry>
        </mxCell>
        <mxCell id="XBwlvYfsJkR7OyTx2r9g-54" style="shape=partialRectangle;html=1;whiteSpace=wrap;connectable=0;strokeColor=inherit;overflow=hidden;fillColor=none;top=0;left=0;bottom=0;right=0;pointerEvents=1;fontSize=16;" parent="XBwlvYfsJkR7OyTx2r9g-51" vertex="1">
          <mxGeometry x="40" width="40" height="40" as="geometry">
            <mxRectangle width="40" height="40" as="alternateBounds" />
          </mxGeometry>
        </mxCell>
        <mxCell id="XBwlvYfsJkR7OyTx2r9g-55" value="" style="shape=partialRectangle;html=1;whiteSpace=wrap;connectable=0;strokeColor=inherit;overflow=hidden;fillColor=none;top=0;left=0;bottom=0;right=0;pointerEvents=1;fontSize=16;" parent="XBwlvYfsJkR7OyTx2r9g-51" vertex="1">
          <mxGeometry x="80" width="40" height="40" as="geometry">
            <mxRectangle width="40" height="40" as="alternateBounds" />
          </mxGeometry>
        </mxCell>
        <mxCell id="XBwlvYfsJkR7OyTx2r9g-56" style="shape=partialRectangle;html=1;whiteSpace=wrap;connectable=0;strokeColor=inherit;overflow=hidden;fillColor=none;top=0;left=0;bottom=0;right=0;pointerEvents=1;fontSize=16;" parent="XBwlvYfsJkR7OyTx2r9g-51" vertex="1">
          <mxGeometry x="120" width="40" height="40" as="geometry">
            <mxRectangle width="40" height="40" as="alternateBounds" />
          </mxGeometry>
        </mxCell>
        <mxCell id="XBwlvYfsJkR7OyTx2r9g-57" style="shape=tableRow;horizontal=0;startSize=0;swimlaneHead=0;swimlaneBody=0;strokeColor=inherit;top=0;left=0;bottom=0;right=0;collapsible=0;dropTarget=0;fillColor=none;points=[[0,0.5],[1,0.5]];portConstraint=eastwest;fontSize=16;" parent="XBwlvYfsJkR7OyTx2r9g-32" vertex="1">
          <mxGeometry y="120" width="160" height="40" as="geometry" />
        </mxCell>
        <mxCell id="XBwlvYfsJkR7OyTx2r9g-59" value="1.2" style="shape=partialRectangle;html=1;whiteSpace=wrap;connectable=0;strokeColor=#004489;overflow=hidden;fillColor=#50A1F2;top=0;left=0;bottom=0;right=0;pointerEvents=1;fontSize=16;" parent="XBwlvYfsJkR7OyTx2r9g-57" vertex="1">
          <mxGeometry width="40" height="40" as="geometry">
            <mxRectangle width="40" height="40" as="alternateBounds" />
          </mxGeometry>
        </mxCell>
        <mxCell id="XBwlvYfsJkR7OyTx2r9g-60" value="8.3" style="shape=partialRectangle;html=1;whiteSpace=wrap;connectable=0;strokeColor=inherit;overflow=hidden;fillColor=none;top=0;left=0;bottom=0;right=0;pointerEvents=1;fontSize=16;" parent="XBwlvYfsJkR7OyTx2r9g-57" vertex="1">
          <mxGeometry x="40" width="40" height="40" as="geometry">
            <mxRectangle width="40" height="40" as="alternateBounds" />
          </mxGeometry>
        </mxCell>
        <mxCell id="XBwlvYfsJkR7OyTx2r9g-61" style="shape=partialRectangle;html=1;whiteSpace=wrap;connectable=0;strokeColor=inherit;overflow=hidden;fillColor=none;top=0;left=0;bottom=0;right=0;pointerEvents=1;fontSize=16;" parent="XBwlvYfsJkR7OyTx2r9g-57" vertex="1">
          <mxGeometry x="80" width="40" height="40" as="geometry">
            <mxRectangle width="40" height="40" as="alternateBounds" />
          </mxGeometry>
        </mxCell>
        <mxCell id="XBwlvYfsJkR7OyTx2r9g-62" value="0.0" style="shape=partialRectangle;html=1;whiteSpace=wrap;connectable=0;strokeColor=inherit;overflow=hidden;fillColor=none;top=0;left=0;bottom=0;right=0;pointerEvents=1;fontSize=16;" parent="XBwlvYfsJkR7OyTx2r9g-57" vertex="1">
          <mxGeometry x="120" width="40" height="40" as="geometry">
            <mxRectangle width="40" height="40" as="alternateBounds" />
          </mxGeometry>
        </mxCell>
        <mxCell id="XBwlvYfsJkR7OyTx2r9g-139" value="" style="shape=table;startSize=0;container=1;collapsible=0;childLayout=tableLayout;fontSize=16;" parent="1" vertex="1">
          <mxGeometry x="200" y="280" width="240" height="40" as="geometry" />
        </mxCell>
        <mxCell id="XBwlvYfsJkR7OyTx2r9g-140" value="" style="shape=tableRow;horizontal=0;startSize=0;swimlaneHead=0;swimlaneBody=0;strokeColor=inherit;top=0;left=0;bottom=0;right=0;collapsible=0;dropTarget=0;fillColor=none;points=[[0,0.5],[1,0.5]];portConstraint=eastwest;fontSize=16;" parent="XBwlvYfsJkR7OyTx2r9g-139" vertex="1">
          <mxGeometry width="240" height="40" as="geometry" />
        </mxCell>
        <mxCell id="XBwlvYfsJkR7OyTx2r9g-141" value="1" style="shape=partialRectangle;html=1;whiteSpace=wrap;connectable=0;strokeColor=inherit;overflow=hidden;fillColor=none;top=0;left=0;bottom=0;right=0;pointerEvents=1;fontSize=16;" parent="XBwlvYfsJkR7OyTx2r9g-140" vertex="1">
          <mxGeometry width="60" height="40" as="geometry">
            <mxRectangle width="60" height="40" as="alternateBounds" />
          </mxGeometry>
        </mxCell>
        <mxCell id="XBwlvYfsJkR7OyTx2r9g-142" value="0" style="shape=partialRectangle;html=1;whiteSpace=wrap;connectable=0;strokeColor=inherit;overflow=hidden;fillColor=none;top=0;left=0;bottom=0;right=0;pointerEvents=1;fontSize=16;" parent="XBwlvYfsJkR7OyTx2r9g-140" vertex="1">
          <mxGeometry x="60" width="60" height="40" as="geometry">
            <mxRectangle width="60" height="40" as="alternateBounds" />
          </mxGeometry>
        </mxCell>
        <mxCell id="XBwlvYfsJkR7OyTx2r9g-143" value="1" style="shape=partialRectangle;html=1;whiteSpace=wrap;connectable=0;strokeColor=inherit;overflow=hidden;fillColor=none;top=0;left=0;bottom=0;right=0;pointerEvents=1;fontSize=16;" parent="XBwlvYfsJkR7OyTx2r9g-140" vertex="1">
          <mxGeometry x="120" width="60" height="40" as="geometry">
            <mxRectangle width="60" height="40" as="alternateBounds" />
          </mxGeometry>
        </mxCell>
        <mxCell id="XBwlvYfsJkR7OyTx2r9g-152" value="k-1" style="shape=partialRectangle;html=1;whiteSpace=wrap;connectable=0;strokeColor=inherit;overflow=hidden;fillColor=none;top=0;left=0;bottom=0;right=0;pointerEvents=1;fontSize=16;" parent="XBwlvYfsJkR7OyTx2r9g-140" vertex="1">
          <mxGeometry x="180" width="60" height="40" as="geometry">
            <mxRectangle width="60" height="40" as="alternateBounds" />
          </mxGeometry>
        </mxCell>
        <mxCell id="XBwlvYfsJkR7OyTx2r9g-153" value="" style="shape=table;startSize=0;container=1;collapsible=0;childLayout=tableLayout;fontSize=16;" parent="1" vertex="1">
          <mxGeometry x="200" y="160" width="240" height="40" as="geometry" />
        </mxCell>
        <mxCell id="XBwlvYfsJkR7OyTx2r9g-154" value="" style="shape=tableRow;horizontal=0;startSize=0;swimlaneHead=0;swimlaneBody=0;strokeColor=inherit;top=0;left=0;bottom=0;right=0;collapsible=0;dropTarget=0;fillColor=none;points=[[0,0.5],[1,0.5]];portConstraint=eastwest;fontSize=16;" parent="XBwlvYfsJkR7OyTx2r9g-153" vertex="1">
          <mxGeometry width="240" height="40" as="geometry" />
        </mxCell>
        <mxCell id="XBwlvYfsJkR7OyTx2r9g-155" value="0" style="shape=partialRectangle;html=1;whiteSpace=wrap;connectable=0;strokeColor=inherit;overflow=hidden;fillColor=none;top=0;left=0;bottom=0;right=0;pointerEvents=1;fontSize=16;" parent="XBwlvYfsJkR7OyTx2r9g-154" vertex="1">
          <mxGeometry width="60" height="40" as="geometry">
            <mxRectangle width="60" height="40" as="alternateBounds" />
          </mxGeometry>
        </mxCell>
        <mxCell id="XBwlvYfsJkR7OyTx2r9g-156" value="1" style="shape=partialRectangle;html=1;whiteSpace=wrap;connectable=0;strokeColor=inherit;overflow=hidden;fillColor=none;top=0;left=0;bottom=0;right=0;pointerEvents=1;fontSize=16;" parent="XBwlvYfsJkR7OyTx2r9g-154" vertex="1">
          <mxGeometry x="60" width="60" height="40" as="geometry">
            <mxRectangle width="60" height="40" as="alternateBounds" />
          </mxGeometry>
        </mxCell>
        <mxCell id="XBwlvYfsJkR7OyTx2r9g-157" value="1" style="shape=partialRectangle;html=1;whiteSpace=wrap;connectable=0;strokeColor=inherit;overflow=hidden;fillColor=none;top=0;left=0;bottom=0;right=0;pointerEvents=1;fontSize=16;" parent="XBwlvYfsJkR7OyTx2r9g-154" vertex="1">
          <mxGeometry x="120" width="60" height="40" as="geometry">
            <mxRectangle width="60" height="40" as="alternateBounds" />
          </mxGeometry>
        </mxCell>
        <mxCell id="XBwlvYfsJkR7OyTx2r9g-158" value="0" style="shape=partialRectangle;html=1;whiteSpace=wrap;connectable=0;strokeColor=inherit;overflow=hidden;fillColor=none;top=0;left=0;bottom=0;right=0;pointerEvents=1;fontSize=16;" parent="XBwlvYfsJkR7OyTx2r9g-154" vertex="1">
          <mxGeometry x="180" width="60" height="40" as="geometry">
            <mxRectangle width="60" height="40" as="alternateBounds" />
          </mxGeometry>
        </mxCell>
        <mxCell id="XBwlvYfsJkR7OyTx2r9g-159" value="Encoded vector A" style="text;html=1;align=right;verticalAlign=middle;resizable=0;points=[];autosize=1;strokeColor=none;fillColor=none;" parent="1" vertex="1">
          <mxGeometry x="70" y="165" width="120" height="30" as="geometry" />
        </mxCell>
        <mxCell id="XBwlvYfsJkR7OyTx2r9g-160" value="Encoded vector B" style="text;html=1;align=right;verticalAlign=middle;resizable=0;points=[];autosize=1;strokeColor=none;fillColor=none;" parent="1" vertex="1">
          <mxGeometry x="70" y="285" width="120" height="30" as="geometry" />
        </mxCell>
        <mxCell id="XBwlvYfsJkR7OyTx2r9g-174" value="$$\text{dist}(\mathbf{A}, \mathbf{B})^2 = 2.0 + 4.3+ \dots$$" style="text;html=1;align=left;verticalAlign=middle;resizable=0;points=[];autosize=1;strokeColor=none;fillColor=none;fontSize=18;" parent="1" vertex="1">
          <mxGeometry x="200" y="680" width="490" height="40" as="geometry" />
        </mxCell>
        <mxCell id="XBwlvYfsJkR7OyTx2r9g-175" value="&lt;div&gt;Squared pairwise distance&lt;/div&gt;&lt;div&gt;matrix for centroids of chunk 0&lt;/div&gt;" style="text;html=1;align=center;verticalAlign=middle;resizable=0;points=[];autosize=1;strokeColor=none;fillColor=none;" parent="1" vertex="1">
          <mxGeometry x="190" y="610" width="180" height="40" as="geometry" />
        </mxCell>
        <mxCell id="ywqsc4L0C0W8szLVaSjZ-1" value="&lt;div&gt;Squared pairwise distance&lt;/div&gt;&lt;div&gt;matrix for centroids of chunk 1&lt;/div&gt;" style="text;html=1;align=center;verticalAlign=middle;resizable=0;points=[];autosize=1;strokeColor=none;fillColor=none;" parent="1" vertex="1">
          <mxGeometry x="550" y="610" width="180" height="40" as="geometry" />
        </mxCell>
        <mxCell id="ywqsc4L0C0W8szLVaSjZ-2" value="" style="endArrow=classic;html=1;rounded=0;edgeStyle=orthogonalEdgeStyle;entryX=0.5;entryY=0;entryDx=0;entryDy=0;" parent="1" target="9UNSQDOZC8LmRjlEzUzU-4" edge="1">
          <mxGeometry width="50" height="50" relative="1" as="geometry">
            <mxPoint x="230" y="320" as="sourcePoint" />
            <mxPoint x="300" y="400" as="targetPoint" />
            <Array as="points">
              <mxPoint x="230" y="360" />
              <mxPoint x="260" y="360" />
            </Array>
          </mxGeometry>
        </mxCell>
        <mxCell id="ywqsc4L0C0W8szLVaSjZ-3" value="" style="endArrow=classic;html=1;rounded=0;edgeStyle=orthogonalEdgeStyle;entryX=0.5;entryY=0;entryDx=0;entryDy=0;" parent="1" target="9UNSQDOZC8LmRjlEzUzU-8" edge="1">
          <mxGeometry width="50" height="50" relative="1" as="geometry">
            <mxPoint x="284.99" y="320" as="sourcePoint" />
            <mxPoint x="580" y="400" as="targetPoint" />
            <Array as="points">
              <mxPoint x="285" y="360" />
              <mxPoint x="580" y="360" />
            </Array>
          </mxGeometry>
        </mxCell>
        <mxCell id="ywqsc4L0C0W8szLVaSjZ-5" value="" style="endArrow=classic;html=1;rounded=0;edgeStyle=orthogonalEdgeStyle;entryX=1;entryY=0.5;entryDx=0;entryDy=0;" parent="1" target="9UNSQDOZC8LmRjlEzUzU-12" edge="1">
          <mxGeometry width="50" height="50" relative="1" as="geometry">
            <mxPoint x="230" y="200" as="sourcePoint" />
            <mxPoint x="430" y="460" as="targetPoint" />
            <Array as="points">
              <mxPoint x="230" y="250" />
              <mxPoint x="450" y="250" />
              <mxPoint x="450" y="460" />
            </Array>
          </mxGeometry>
        </mxCell>
        <mxCell id="ywqsc4L0C0W8szLVaSjZ-6" value="" style="endArrow=classic;html=1;rounded=0;edgeStyle=orthogonalEdgeStyle;entryX=0;entryY=0.5;entryDx=0;entryDy=0;" parent="1" target="9UNSQDOZC8LmRjlEzUzU-17" edge="1">
          <mxGeometry width="50" height="50" relative="1" as="geometry">
            <mxPoint x="290" y="200" as="sourcePoint" />
            <mxPoint x="520" y="500" as="targetPoint" />
            <Array as="points">
              <mxPoint x="290" y="230" />
              <mxPoint x="470" y="230" />
              <mxPoint x="470" y="500" />
            </Array>
          </mxGeometry>
        </mxCell>
        <mxCell id="ywqsc4L0C0W8szLVaSjZ-7" value="..." style="text;html=1;align=center;verticalAlign=middle;resizable=0;points=[];autosize=1;strokeColor=none;fillColor=none;fontSize=42;" parent="1" vertex="1">
          <mxGeometry x="780" y="470" width="60" height="60" as="geometry" />
        </mxCell>
        <mxCell id="9UNSQDOZC8LmRjlEzUzU-3" value="0" style="text;html=1;strokeColor=none;fillColor=none;align=center;verticalAlign=bottom;whiteSpace=wrap;rounded=0;" parent="1" vertex="1">
          <mxGeometry x="200" y="420" width="40" height="20" as="geometry" />
        </mxCell>
        <mxCell id="9UNSQDOZC8LmRjlEzUzU-4" value="&lt;div&gt;1&lt;/div&gt;" style="text;html=1;strokeColor=none;fillColor=none;align=center;verticalAlign=bottom;whiteSpace=wrap;rounded=0;" parent="1" vertex="1">
          <mxGeometry x="240" y="420" width="40" height="20" as="geometry" />
        </mxCell>
        <mxCell id="9UNSQDOZC8LmRjlEzUzU-5" value="k-1" style="text;html=1;strokeColor=none;fillColor=none;align=center;verticalAlign=bottom;whiteSpace=wrap;rounded=0;" parent="1" vertex="1">
          <mxGeometry x="320" y="420" width="40" height="20" as="geometry" />
        </mxCell>
        <mxCell id="9UNSQDOZC8LmRjlEzUzU-6" value="..." style="text;html=1;strokeColor=none;fillColor=none;align=center;verticalAlign=bottom;whiteSpace=wrap;rounded=0;" parent="1" vertex="1">
          <mxGeometry x="280" y="420" width="40" height="20" as="geometry" />
        </mxCell>
        <mxCell id="9UNSQDOZC8LmRjlEzUzU-8" value="0" style="text;html=1;strokeColor=none;fillColor=none;align=center;verticalAlign=bottom;whiteSpace=wrap;rounded=0;" parent="1" vertex="1">
          <mxGeometry x="560" y="420" width="40" height="20" as="geometry" />
        </mxCell>
        <mxCell id="9UNSQDOZC8LmRjlEzUzU-9" value="&lt;div&gt;1&lt;/div&gt;" style="text;html=1;strokeColor=none;fillColor=none;align=center;verticalAlign=bottom;whiteSpace=wrap;rounded=0;" parent="1" vertex="1">
          <mxGeometry x="600" y="420" width="40" height="20" as="geometry" />
        </mxCell>
        <mxCell id="9UNSQDOZC8LmRjlEzUzU-10" value="k-1" style="text;html=1;strokeColor=none;fillColor=none;align=center;verticalAlign=bottom;whiteSpace=wrap;rounded=0;" parent="1" vertex="1">
          <mxGeometry x="680" y="420" width="40" height="20" as="geometry" />
        </mxCell>
        <mxCell id="9UNSQDOZC8LmRjlEzUzU-11" value="..." style="text;html=1;strokeColor=none;fillColor=none;align=center;verticalAlign=bottom;whiteSpace=wrap;rounded=0;" parent="1" vertex="1">
          <mxGeometry x="640" y="420" width="40" height="20" as="geometry" />
        </mxCell>
        <mxCell id="9UNSQDOZC8LmRjlEzUzU-12" value="0" style="text;html=1;strokeColor=none;fillColor=none;align=left;verticalAlign=middle;whiteSpace=wrap;rounded=0;" parent="1" vertex="1">
          <mxGeometry x="360" y="440" width="20" height="40" as="geometry" />
        </mxCell>
        <mxCell id="9UNSQDOZC8LmRjlEzUzU-13" value="1" style="text;html=1;strokeColor=none;fillColor=none;align=left;verticalAlign=middle;whiteSpace=wrap;rounded=0;" parent="1" vertex="1">
          <mxGeometry x="360" y="480" width="20" height="40" as="geometry" />
        </mxCell>
        <mxCell id="9UNSQDOZC8LmRjlEzUzU-14" value="..." style="text;html=1;strokeColor=none;fillColor=none;align=left;verticalAlign=middle;whiteSpace=wrap;rounded=0;" parent="1" vertex="1">
          <mxGeometry x="360" y="520" width="20" height="40" as="geometry" />
        </mxCell>
        <mxCell id="9UNSQDOZC8LmRjlEzUzU-15" value="k-1" style="text;html=1;strokeColor=none;fillColor=none;align=left;verticalAlign=middle;whiteSpace=wrap;rounded=0;" parent="1" vertex="1">
          <mxGeometry x="360" y="560" width="20" height="40" as="geometry" />
        </mxCell>
        <mxCell id="9UNSQDOZC8LmRjlEzUzU-16" value="0" style="text;html=1;strokeColor=none;fillColor=none;align=right;verticalAlign=middle;whiteSpace=wrap;rounded=0;" parent="1" vertex="1">
          <mxGeometry x="540" y="440" width="20" height="40" as="geometry" />
        </mxCell>
        <mxCell id="9UNSQDOZC8LmRjlEzUzU-17" value="1" style="text;html=1;strokeColor=none;fillColor=none;align=right;verticalAlign=middle;whiteSpace=wrap;rounded=0;" parent="1" vertex="1">
          <mxGeometry x="540" y="480" width="20" height="40" as="geometry" />
        </mxCell>
        <mxCell id="9UNSQDOZC8LmRjlEzUzU-18" value="..." style="text;html=1;strokeColor=none;fillColor=none;align=right;verticalAlign=middle;whiteSpace=wrap;rounded=0;" parent="1" vertex="1">
          <mxGeometry x="540" y="520" width="20" height="40" as="geometry" />
        </mxCell>
        <mxCell id="9UNSQDOZC8LmRjlEzUzU-19" value="k-1" style="text;html=1;strokeColor=none;fillColor=none;align=right;verticalAlign=middle;whiteSpace=wrap;rounded=0;" parent="1" vertex="1">
          <mxGeometry x="540" y="560" width="20" height="40" as="geometry" />
        </mxCell>
      </root>
    </mxGraphModel>
  </diagram>
</mxfile>
